<?xml version="1.0" encoding="UTF-8"?>
<svg id="Layer_1" xmlns="http://www.w3.org/2000/svg" version="1.1" viewBox="0 0 1000 1000">
  <!-- Generator: Adobe Illustrator 30.3.0, SVG Export Plug-In . SVG Version: 2.1.3 Build 182)  -->
  <defs>
    <style>
      .st0 {
        fill: #a4248f;
      }

      .st1 {
        fill: #231f20;
      }

      .st2 {
        fill: #fff;
      }

      .st3 {
        fill: #f7941d;
      }

      .st4 {
        fill: #ef483c;
      }

      .st5 {
        fill: #030202;
      }

      .st5, .st6 {
        stroke: #030202;
        stroke-miterlimit: 10;
      }

      .st7 {
        fill: #2b3990;
      }

      .st8 {
        fill: #be1e2d;
      }

      .st6 {
        fill: none;
      }

      .st9 {
        fill: #fff200;
      }

      .st10 {
        fill: #00aeef;
      }
    </style>
  </defs>
  <g>
    <path class="st5" d="M622.99,105.54v104.47c0,8.64-7,15.64-15.64,15.64h-240.33c-8.64,0-15.64-7-15.64-15.64v-104.51c0-8.6,7.04-15.64,15.64-15.64h240.29c8.62,0,15.68,7.05,15.68,15.68Z"/>
    <path class="st5" d="M265.13,182.49v101.35c0,2.69,2.18,4.87,4.87,4.87h427.28c2.69,0,4.87-2.18,4.87-4.87v-96.48c0-2.69-2.18-4.87-4.87-4.87h-37.76c-2.69,0-4.87,2.18-4.87,4.87v74.56c0,2.69-2.18,4.87-4.87,4.87h-332.22c-2.69,0-4.87-2.18-4.87-4.87v-74.56c0-2.69-2.18-4.87-4.87-4.87h-44.6"/>
    <path class="st6" d="M374.01,325.62"/>
    <path class="st5" d="M236.5,317.28h492.36c2.69,0,4.87,2.18,4.87,4.87v103.14c0,8.9-7.22,16.12-16.12,16.12h-25.6c-5.31,0-10.29-2.61-13.31-6.99l-32.25-46.76c-.9-1.3-2.37-2.09-3.95-2.11l-316.27-4.1c-1.6-.02-3.11.74-4.03,2.05l-36.36,51.11c-3.03,4.26-7.94,6.79-13.17,6.79h-24.87c-8.89,0-16.17-7.28-16.17-16.17v-103.09c0-2.69,2.18-4.87,4.87-4.87Z"/>
    <rect class="st2" x="649.87" y="338.72" width="51.87" height="16.74" rx="6.69" ry="6.69"/>
    <g>
      <path class="st9" d="M334.79,407.19l-56.82,116.94c-6,12.35-4.17,28.83,4.25,38.26h0c8.55,9.57,21.45,6.05,26.59-7.26l45.94-118.94c4.12-10.67,1.25-30.44-6.97-35.06l-3.49-.79c-2.38-1.33-8.1,3.94-9.51,6.84Z"/>
      <path class="st3" d="M374.16,409.6l-38.26,130c-4.04,13.73.2,29.38,9.86,36.32h0c9.8,7.04,21.91.09,24.97-14.34l27.32-129c2.45-11.57-3.3-30.16-12.04-32.45l-3.54.18c-2.52-.66-7.35,6.06-8.3,9.29Z"/>
      <path class="st4" d="M421.39,409.05l-21.64,136.83c-2.29,14.45,3.84,28.92,14.21,33.57h0c10.53,4.73,21.61-4.87,22.84-19.79l10.97-133.37c.98-11.97-6.98-28.99-15.89-29.27l-3.46.98c-2.57-.08-6.49,7.64-7.03,11.04Z"/>
      <path class="st8" d="M464.16,411.23l-5.12,139.75c-.54,14.76,7.22,27.71,18.01,30.06h0c10.96,2.38,20.76-9.49,20.2-24.48l-5-134.02c-.45-12.02-10.33-27.1-19.15-25.44l-3.3,1.71c-2.55.48-5.5,8.95-5.63,12.42Z"/>
      <path class="st0" d="M513.25,413.13l5.87,139.69c.62,14.76,9.35,26.52,20.27,27.3h0c11.08.8,19.89-12.42,18.16-27.24l-15.49-132.54c-1.39-11.89-12.4-25.46-21.04-22.55l-3.15,2.18c-2.5.84-4.77,9.69-4.62,13.16Z"/>
      <path class="st7" d="M562.62,420.87l28.06,134.68c2.96,14.23,13.37,23.16,24.15,20.74h0c10.95-2.46,17.44-17.94,13.38-31.9l-36.3-124.89c-3.26-11.21-16.18-21.24-24.15-15.87l-2.73,3.05c-2.3,1.55-3.11,10.85-2.41,14.2Z"/>
      <path class="st10" d="M608.91,427.53l43.83,126.75c4.63,13.39,15.97,19.92,26.32,15.17h0c10.51-4.83,15.06-21.52,9.38-34.42l-50.8-115.28c-4.56-10.34-18.51-17.41-25.73-10.37l-2.33,3.6c-2.09,2.03-1.77,11.39-.68,14.54Z"/>
    </g>
  </g>
  <g>
    <path class="st1" d="M232.44,759l-12.12,44.02h-33.04l52.77-190.56h42.21l55.05,190.56h-35.33l-12.77-44.02h-56.77ZM281.99,725.23c-11.03-40.21-18.07-65.91-21.82-83.04h-.23c-3.83,18.79-11.59,48.68-20.44,83.04h42.48Z"/>
    <path class="st1" d="M357.27,612.46h61.62c45.26,0,74.85,36.55,74.85,92.89s-28.71,97.67-76.26,97.67h-60.21v-190.56ZM390.88,769.74h25.2c29.8,0,42.97-27.17,42.97-64.28,0-31.13-12.33-59.7-42.77-59.7h-25.4v123.99Z"/>
    <path class="st1" d="M556.78,612.46v190.56h-33.6v-190.56h33.6Z"/>
    <path class="st1" d="M627.03,646.24h-47.22v-33.77h127.9v33.77h-47.05v156.79h-33.63v-156.79Z"/>
    <path class="st1" d="M762.13,612.46v190.56h-33.6v-190.56h33.6Z"/>
  </g>
  <g>
    <path class="st1" d="M92.11,838.99h28.75c14.74,0,24.81,7.88,24.81,20.95,0,14.16-10.79,21.46-25.37,21.46h-17.08v28.73h-11.11v-71.14ZM103.22,872.65h16.3c9.68,0,14.81-4.38,14.81-12.46s-6.06-12.45-14.43-12.45h-16.68v24.91Z"/>
    <path class="st1" d="M170.13,879.34v30.79h-10.91v-71.14h29.78c15.47,0,23.74,8.04,23.74,19.13,0,9.3-5.54,14.83-12.34,16.75,5.62,1.51,10.96,5.72,10.96,18.14v3.14c0,4.88-.19,10.94,1.01,13.99h-10.67c-1.34-3.07-1.32-8.58-1.32-15.42v-1.42c0-9.68-2.82-13.95-15.91-13.95h-14.34ZM170.13,870.58h15.68c10.9,0,15.59-3.92,15.59-11.53s-4.93-11.31-14.62-11.31h-16.65v22.84Z"/>
    <path class="st1" d="M240.05,838.99v71.14h-11.05v-71.14h11.05Z"/>
    <path class="st1" d="M275.23,847.93h-23.78v-8.94h58.67v8.94h-23.79v62.21h-11.11v-62.21Z"/>
    <path class="st1" d="M331.69,838.99v71.14h-11.05v-71.14h11.05Z"/>
    <path class="st1" d="M351.51,910.13v-71.14h14.37c10.42,16.51,32.5,50.65,36.53,58.39h.16c-.74-8.81-.68-20.24-.68-31.88v-26.51h10.33v71.14h-13.53c-9.49-15.15-32.73-52.28-37.22-60.31h-.16c.54,7.75.57,20.29.57,33.11v27.19h-10.38Z"/>
    <path class="st1" d="M492.68,910.13h-8.38c-.53-1.52-.84-4.55-.99-9.14-3.41,5.1-9.99,10.15-22.86,10.15-21.5,0-33.02-15.58-33.02-35.82,0-21.32,12.38-37.35,35.03-37.35,17.65,0,28.61,9.21,30.68,21.82h-11.05c-2.34-7.35-7.93-13.16-19.84-13.16-16.91,0-23.29,13-23.29,28.2,0,14.2,6.55,27.56,22.98,27.56s19.97-10.33,19.97-21.27v-.73h-20.08v-8.94h30.87v38.68Z"/>
    <path class="st1" d="M536.95,838.99h11.05v29.33h37.13v-29.33h11.05v71.14h-11.05v-32.87h-37.13v32.87h-11.05v-71.14Z"/>
    <path class="st1" d="M681.03,874.19c0,19.61-11.66,36.97-35.26,36.97-22.19,0-34.42-16.19-34.42-36.6s12.68-36.6,35.31-36.6c21.12,0,34.36,14.96,34.36,36.22ZM622.88,874.25c0,15.09,7.88,28.01,23.36,28.01,16.72,0,23.26-13.21,23.26-27.93s-7.42-27.48-23.29-27.48-23.33,12.47-23.33,27.4Z"/>
    <path class="st1" d="M707.01,838.99v42.73c0,16.21,9.21,20.66,18.46,20.66,10.79,0,18.26-4.88,18.26-20.66v-42.73h11.11v42.19c0,23.32-13.65,29.86-29.58,29.86s-29.41-7.03-29.41-29.27v-42.79h11.17Z"/>
    <path class="st1" d="M777.87,890.13c1.96,8.27,7.92,12.6,18.3,12.6,11.04,0,15.47-4.83,15.47-11.27,0-6.88-3.65-10.6-18.17-13.93-18.06-4.16-23.94-10.15-23.94-20.08,0-10.91,8.45-19.49,25.26-19.49,18.12,0,25.52,9.86,26.54,19.41h-11.22c-1.23-5.96-5.07-11.07-15.69-11.07-8.59,0-13.46,3.65-13.46,10.1s4,8.87,16.86,11.82c21.31,4.93,25.25,12.79,25.25,22.09,0,11.76-9.16,20.74-27.65,20.74s-27.18-9.61-28.77-20.91h11.21Z"/>
    <path class="st1" d="M884.66,877.36h-36.76v23.83h40.4l-1.39,8.94h-49.82v-71.14h49.3v8.94h-38.49v20.5h36.76v8.94Z"/>
  </g>
</svg>